<?xml version="1.0" encoding="UTF-8" standalone="no"?>
<!DOCTYPE svg PUBLIC "-//W3C//DTD SVG 1.1//EN" "http://www.w3.org/Graphics/SVG/1.1/DTD/svg11.dtd">
<svg version="1.1" xmlns="http://www.w3.org/2000/svg" xmlns:xlink="http://www.w3.org/1999/xlink" preserveAspectRatio="xMidYMid meet" viewBox="139 273.9 364 94.19999999999999" width="360" height="90.2"><defs><path d="M230.32 313.22L231.15 313.37L231.96 313.58L232.75 313.84L233.5 314.16L234.24 314.52L234.94 314.93L235.61 315.38L236.25 315.88L236.86 316.41L237.44 316.99L237.98 317.6L238.49 318.24L238.96 318.91L239.39 319.61L239.78 320.34L240.13 321.09L240.44 321.86L240.7 322.65L240.92 323.46L241.1 324.28L241.22 325.11L241.3 325.95L241.33 326.8L241.33 326.88L241.32 326.95L241.31 327.02L241.29 327.09L241.27 327.16L241.25 327.23L241.22 327.3L241.18 327.36L241.14 327.42L241.1 327.48L241.06 327.54L241.01 327.59L240.96 327.65L240.9 327.69L240.85 327.74L240.78 327.78L240.72 327.82L240.66 327.85L240.59 327.88L240.52 327.91L240.45 327.93L240.37 327.94L240.3 327.96L240.22 327.96L240.14 327.97L218.2 327.97L218.28 328.62L218.4 329.27L218.55 329.91L218.73 330.54L218.94 331.15L219.19 331.76L219.46 332.35L219.76 332.92L220.09 333.48L220.44 334.01L220.82 334.53L221.23 335.01L221.67 335.48L222.12 335.92L222.61 336.32L223.11 336.7L223.64 337.05L224.19 337.36L224.76 337.63L225.35 337.87L225.96 338.07L226.59 338.23L227.24 338.34L227.91 338.41L228.59 338.43L229.06 338.43L229.52 338.4L229.96 338.37L230.4 338.32L230.83 338.25L231.25 338.17L231.66 338.08L232.07 337.97L232.46 337.84L232.84 337.7L233.22 337.55L233.59 337.38L233.94 337.19L234.29 336.99L234.64 336.78L234.97 336.55L235.29 336.3L235.61 336.04L235.92 335.76L236.22 335.47L236.52 335.16L236.81 334.83L237.09 334.49L237.36 334.14L237.62 333.77L237.65 333.73L237.68 333.69L237.71 333.65L237.74 333.61L237.78 333.58L237.81 333.55L237.84 333.51L237.88 333.48L237.91 333.45L237.95 333.42L237.99 333.4L238.02 333.37L238.06 333.35L238.1 333.32L238.14 333.3L238.18 333.28L238.22 333.27L238.27 333.25L238.31 333.24L238.35 333.23L238.4 333.22L238.44 333.21L238.49 333.2L238.54 333.2L238.58 333.2L238.66 333.2L238.73 333.21L238.8 333.22L238.87 333.23L238.94 333.25L239 333.28L239.07 333.3L239.13 333.33L239.19 333.37L239.24 333.4L239.29 333.45L239.34 333.49L239.39 333.54L239.43 333.59L239.47 333.64L239.51 333.69L239.54 333.75L239.57 333.81L239.6 333.88L239.62 333.94L239.64 334.01L239.66 334.08L239.67 334.15L239.67 334.22L239.68 334.3L239.68 334.33L239.68 334.35L239.67 334.38L239.67 334.41L239.67 334.43L239.67 334.46L239.66 334.48L239.66 334.51L239.65 334.53L239.65 334.55L239.64 334.57L239.63 334.6L239.63 334.62L239.62 334.64L239.61 334.66L239.6 334.68L239.6 334.7L239.59 334.73L239.58 334.75L239.57 334.77L239.56 334.79L239.55 334.81L239.53 334.83L239.52 334.85L239.51 334.87L239.23 335.32L238.94 335.76L238.62 336.17L238.29 336.57L237.94 336.95L237.57 337.31L237.19 337.65L236.79 337.98L236.37 338.28L235.95 338.57L235.51 338.83L235.06 339.08L234.6 339.31L234.13 339.52L233.65 339.72L233.17 339.89L232.68 340.05L232.18 340.18L231.67 340.3L231.17 340.4L230.65 340.49L230.14 340.55L229.62 340.6L229.11 340.62L228.59 340.63L227.72 340.6L226.86 340.51L226.03 340.36L225.22 340.15L224.44 339.88L223.68 339.57L222.95 339.2L222.25 338.79L221.58 338.33L220.94 337.83L220.33 337.29L219.76 336.71L219.22 336.1L218.72 335.46L218.25 334.78L217.82 334.08L217.44 333.35L217.09 332.59L216.79 331.82L216.53 331.02L216.31 330.22L216.14 329.39L216.02 328.56L215.94 327.72L215.92 326.87L215.94 326.01L216.02 325.17L216.14 324.33L216.31 323.51L216.52 322.7L216.78 321.9L217.09 321.13L217.43 320.37L217.82 319.64L218.24 318.94L218.71 318.26L219.21 317.62L219.75 317.01L220.32 316.43L220.93 315.89L221.57 315.39L222.24 314.94L222.94 314.53L223.67 314.16L224.43 313.85L225.21 313.58L226.02 313.38L226.85 313.22L227.71 313.13L228.59 313.1L229.47 313.13L230.32 313.22ZM225.35 315.86L223.91 316.53L222.61 317.41L221.45 318.48L220.44 319.72L219.6 321.1L218.94 322.58L218.47 324.15L218.2 325.77L238.98 325.77L238.04 323.78L237.08 322L236.1 320.43L235.1 319.07L234.07 317.92L233.02 316.97L231.94 316.24L230.85 315.72L229.73 315.4L228.59 315.3L226.92 315.45L225.35 315.86Z" id="byH3OfKrW"></path><path d="M271.47 314.64C271.47 315.27 271 315.74 270.37 315.74C269.98 315.74 268 315.74 264.44 315.74C264.44 329.72 264.44 337.49 264.44 339.04C264.44 339.61 263.97 340.14 263.34 340.14C262.7 340.14 262.24 339.57 262.24 339.04C262.24 337.49 262.24 329.72 262.24 315.74C258.82 315.74 256.92 315.74 256.54 315.74C255.9 315.74 255.44 315.27 255.44 314.64C255.44 314.07 255.9 313.54 256.54 313.54C256.92 313.54 258.82 313.54 262.24 313.54C262.24 308.44 262.24 305.61 262.24 305.04C262.24 304.47 262.67 303.94 263.24 303.87C263.94 303.81 264.47 304.31 264.47 304.97C264.47 305.54 264.47 308.4 264.47 313.54L270.37 313.54C271.1 313.92 271.47 314.28 271.47 314.64Z" id="e4BUf4fSej"></path><path d="M305.1 339C305.1 339.63 304.53 340.1 304 340.1C303.37 340.1 302.9 339.63 302.9 339C302.9 337.59 302.9 326.31 302.9 324.9C302.9 320.13 300.2 315.4 294.9 315.4C288.1 315.4 285.17 321.33 285.57 327.43C285.57 327.6 285.63 328.3 285.63 328.4C285.63 329.46 285.63 337.91 285.63 338.97C285.63 339.53 285.2 340.07 284.63 340.13C283.93 340.2 283.4 339.7 283.4 339.03C283.4 334.4 283.4 297.3 283.4 292.67C283.4 292.1 283.87 291.57 284.5 291.57C285.13 291.57 285.6 292.13 285.6 292.67C285.6 295.29 285.6 316.25 285.6 318.87C287.5 315.47 290.9 313.17 294.87 313.17C301.4 313.17 305.1 318.87 305.1 324.9C305.1 327.72 305.1 337.59 305.1 339Z" id="gM2arnU53"></path><path d="M333.7 313.22L334.54 313.37L335.35 313.58L336.14 313.84L336.9 314.16L337.63 314.52L338.34 314.93L339.02 315.38L339.66 315.88L340.28 316.41L340.86 316.99L341.4 317.6L341.91 318.24L342.39 318.91L342.82 319.61L343.21 320.34L343.57 321.09L343.88 321.86L344.15 322.65L344.37 323.46L344.55 324.28L344.68 325.11L344.77 325.95L344.8 326.8L344.8 326.88L344.79 326.95L344.78 327.02L344.76 327.09L344.74 327.16L344.71 327.23L344.68 327.3L344.65 327.36L344.61 327.42L344.57 327.48L344.52 327.54L344.48 327.59L344.42 327.65L344.37 327.69L344.31 327.74L344.25 327.78L344.19 327.82L344.12 327.85L344.05 327.88L343.98 327.91L343.91 327.93L343.83 327.94L343.76 327.96L343.68 327.96L343.6 327.97L321.5 327.97L321.58 328.62L321.7 329.27L321.85 329.91L322.04 330.54L322.25 331.15L322.49 331.76L322.77 332.35L323.07 332.92L323.4 333.48L323.76 334.01L324.14 334.53L324.56 335.01L324.99 335.48L325.45 335.92L325.94 336.32L326.45 336.7L326.98 337.05L327.53 337.36L328.11 337.63L328.71 337.87L329.32 338.07L329.96 338.23L330.61 338.34L331.28 338.41L331.97 338.43L332.44 338.43L332.9 338.4L333.35 338.37L333.79 338.32L334.23 338.25L334.65 338.17L335.06 338.08L335.47 337.97L335.86 337.84L336.25 337.7L336.63 337.55L337 337.38L337.36 337.19L337.71 336.99L338.06 336.78L338.39 336.55L338.72 336.3L339.04 336.04L339.35 335.76L339.66 335.47L339.95 335.16L340.24 334.83L340.52 334.49L340.8 334.14L341.07 333.77L341.1 333.73L341.12 333.69L341.15 333.65L341.19 333.61L341.22 333.58L341.25 333.55L341.29 333.51L341.32 333.48L341.36 333.45L341.39 333.42L341.43 333.4L341.47 333.37L341.51 333.35L341.55 333.32L341.59 333.3L341.63 333.28L341.67 333.27L341.71 333.25L341.76 333.24L341.8 333.23L341.85 333.22L341.89 333.21L341.94 333.2L341.99 333.2L342.03 333.2L342.11 333.2L342.18 333.21L342.25 333.22L342.32 333.23L342.39 333.25L342.46 333.28L342.52 333.3L342.58 333.33L342.64 333.37L342.69 333.4L342.75 333.45L342.8 333.49L342.84 333.54L342.89 333.59L342.93 333.64L342.97 333.69L343 333.75L343.03 333.81L343.06 333.88L343.08 333.94L343.1 334.01L343.11 334.08L343.12 334.15L343.13 334.22L343.13 334.3L343.13 334.33L343.13 334.35L343.13 334.38L343.13 334.41L343.13 334.43L343.12 334.46L343.12 334.48L343.11 334.51L343.11 334.53L343.1 334.55L343.1 334.57L343.09 334.6L343.08 334.62L343.08 334.64L343.07 334.66L343.06 334.68L343.05 334.7L343.04 334.73L343.03 334.75L343.02 334.77L343.01 334.79L343 334.81L342.99 334.83L342.98 334.85L342.97 334.87L342.69 335.32L342.39 335.76L342.07 336.17L341.74 336.57L341.38 336.95L341.01 337.31L340.62 337.65L340.22 337.98L339.81 338.28L339.38 338.57L338.94 338.83L338.48 339.08L338.02 339.31L337.55 339.52L337.07 339.72L336.58 339.89L336.08 340.05L335.58 340.18L335.07 340.3L334.56 340.4L334.04 340.49L333.53 340.55L333.01 340.6L332.49 340.62L331.97 340.63L331.08 340.6L330.22 340.51L329.39 340.36L328.57 340.15L327.78 339.88L327.02 339.57L326.29 339.2L325.58 338.79L324.91 338.33L324.26 337.83L323.65 337.29L323.07 336.71L322.53 336.1L322.02 335.46L321.55 334.78L321.12 334.08L320.73 333.35L320.38 332.59L320.08 331.82L319.81 331.02L319.6 330.22L319.42 329.39L319.3 328.56L319.23 327.72L319.2 326.87L319.23 326.01L319.3 325.17L319.42 324.33L319.59 323.51L319.81 322.7L320.07 321.9L320.38 321.13L320.73 320.37L321.11 319.64L321.54 318.94L322.01 318.26L322.52 317.62L323.06 317.01L323.64 316.43L324.25 315.89L324.89 315.39L325.57 314.94L326.27 314.53L327.01 314.16L327.77 313.85L328.56 313.58L329.38 313.38L330.22 313.22L331.08 313.13L331.97 313.1L332.84 313.13L333.7 313.22ZM328.68 315.86L327.24 316.53L325.92 317.41L324.75 318.48L323.73 319.72L322.89 321.1L322.22 322.58L321.74 324.15L321.47 325.77L342.4 325.77L341.46 323.78L340.49 322L339.5 320.43L338.49 319.07L337.45 317.92L336.39 316.97L335.31 316.24L334.21 315.72L333.08 315.4L331.93 315.3L330.25 315.45L328.68 315.86Z" id="b3fhkO216"></path><path d="M370.9 315.87C364.4 316.83 361.47 322.13 361.47 328.3C361.47 329.36 361.47 337.81 361.47 338.87C361.47 339.43 361.03 339.97 360.47 340.03C359.77 340.1 359.23 339.6 359.23 338.93C359.23 336.52 359.23 317.24 359.23 314.83C359.23 314.27 359.67 313.73 360.23 313.67C360.93 313.6 361.47 314.1 361.47 314.77C361.47 315.26 361.47 319.18 361.47 319.67C363.3 316.57 366.93 313.63 370.73 313.63C371.3 313.63 371.93 314.03 371.93 314.67C371.93 315.37 371.53 315.77 370.9 315.87Z" id="aoTB4EMX1"></path><path d="M397.21 313.22L398.05 313.37L398.86 313.58L399.65 313.84L400.42 314.16L401.15 314.52L401.86 314.93L402.54 315.38L403.19 315.88L403.8 316.41L404.38 316.99L404.93 317.6L405.44 318.24L405.91 318.91L406.34 319.61L406.74 320.34L407.09 321.09L407.4 321.86L407.67 322.65L407.89 323.46L408.06 324.28L408.19 325.11L408.27 325.95L408.3 326.8L408.3 326.88L408.29 326.95L408.28 327.02L408.26 327.09L408.24 327.16L408.21 327.23L408.18 327.3L408.15 327.36L408.11 327.42L408.07 327.48L408.02 327.54L407.98 327.59L407.92 327.65L407.87 327.69L407.81 327.74L407.75 327.78L407.69 327.82L407.62 327.85L407.55 327.88L407.48 327.91L407.41 327.93L407.33 327.94L407.26 327.96L407.18 327.96L407.1 327.97L385 327.97L385.08 328.62L385.2 329.27L385.35 329.91L385.54 330.54L385.75 331.15L385.99 331.76L386.27 332.35L386.57 332.92L386.9 333.48L387.26 334.01L387.64 334.53L388.06 335.01L388.49 335.48L388.95 335.92L389.44 336.32L389.95 336.7L390.48 337.05L391.03 337.36L391.61 337.63L392.21 337.87L392.82 338.07L393.46 338.23L394.11 338.34L394.78 338.41L395.47 338.43L395.94 338.43L396.4 338.4L396.85 338.37L397.29 338.32L397.73 338.25L398.15 338.17L398.56 338.08L398.97 337.97L399.36 337.84L399.75 337.7L400.13 337.55L400.5 337.38L400.86 337.19L401.21 336.99L401.56 336.78L401.89 336.55L402.22 336.3L402.54 336.04L402.85 335.76L403.16 335.47L403.45 335.16L403.74 334.83L404.02 334.49L404.3 334.14L404.57 333.77L404.6 333.73L404.62 333.69L404.65 333.65L404.69 333.61L404.72 333.58L404.75 333.55L404.79 333.51L404.82 333.48L404.86 333.45L404.89 333.42L404.93 333.4L404.97 333.37L405.01 333.35L405.05 333.32L405.09 333.3L405.13 333.28L405.17 333.27L405.21 333.25L405.26 333.24L405.3 333.23L405.35 333.22L405.39 333.21L405.44 333.2L405.49 333.2L405.53 333.2L405.61 333.2L405.68 333.21L405.75 333.22L405.82 333.23L405.89 333.25L405.96 333.28L406.02 333.3L406.08 333.33L406.14 333.37L406.19 333.4L406.25 333.45L406.3 333.49L406.34 333.54L406.39 333.59L406.43 333.64L406.47 333.69L406.5 333.75L406.53 333.81L406.56 333.88L406.58 333.94L406.6 334.01L406.61 334.08L406.62 334.15L406.63 334.22L406.63 334.3L406.63 334.33L406.63 334.35L406.63 334.38L406.63 334.41L406.63 334.43L406.62 334.46L406.62 334.48L406.61 334.51L406.61 334.53L406.6 334.55L406.6 334.57L406.59 334.6L406.58 334.62L406.58 334.64L406.57 334.66L406.56 334.68L406.55 334.7L406.54 334.73L406.53 334.75L406.52 334.77L406.51 334.79L406.5 334.81L406.49 334.83L406.48 334.85L406.47 334.87L406.19 335.32L405.89 335.76L405.57 336.17L405.24 336.57L404.88 336.95L404.51 337.31L404.12 337.65L403.72 337.98L403.31 338.28L402.88 338.57L402.44 338.83L401.98 339.08L401.52 339.31L401.05 339.52L400.57 339.72L400.08 339.89L399.58 340.05L399.08 340.18L398.57 340.3L398.06 340.4L397.54 340.49L397.03 340.55L396.51 340.6L395.99 340.62L395.47 340.63L394.58 340.6L393.72 340.51L392.89 340.36L392.07 340.15L391.28 339.88L390.52 339.57L389.79 339.2L389.08 338.79L388.41 338.33L387.76 337.83L387.15 337.29L386.57 336.71L386.03 336.1L385.52 335.46L385.05 334.78L384.62 334.08L384.23 333.35L383.88 332.59L383.58 331.82L383.31 331.02L383.1 330.22L382.92 329.39L382.8 328.56L382.73 327.72L382.7 326.87L382.73 326.01L382.8 325.17L382.92 324.33L383.09 323.51L383.31 322.7L383.57 321.9L383.88 321.13L384.23 320.37L384.61 319.64L385.04 318.94L385.51 318.26L386.02 317.62L386.56 317.01L387.14 316.43L387.75 315.89L388.39 315.39L389.07 314.94L389.77 314.53L390.51 314.16L391.27 313.85L392.06 313.58L392.88 313.38L393.72 313.22L394.58 313.13L395.47 313.1L396.35 313.13L397.21 313.22ZM392.21 315.86L390.76 316.53L389.44 317.41L388.27 318.48L387.26 319.72L386.41 321.1L385.75 322.58L385.27 324.15L385 325.77L405.93 325.77L404.99 323.78L404.02 322L403.03 320.43L402.02 319.07L400.98 317.92L399.93 316.97L398.84 316.24L397.74 315.72L396.62 315.4L395.47 315.3L393.78 315.45L392.21 315.86Z" id="b6oQ5qstrM"></path><path d="M444.03 322.57C444.03 332.51 444.03 338.03 444.03 339.13C444.03 339.77 443.47 340.23 442.93 340.23C442.3 340.23 441.83 339.77 441.83 339.13C441.83 338.67 441.83 334.99 441.83 334.53C440 338.17 436.77 340.8 432.63 340.8C426.07 340.8 422.43 335.1 422.43 329.07C422.43 327.65 422.43 316.32 422.43 314.9C422.43 314.33 422.9 313.8 423.53 313.8C424.17 313.8 424.63 314.37 424.63 314.9C424.63 316.32 424.63 327.65 424.63 329.07C424.63 333.83 427.33 338.57 432.63 338.57C440.07 338.57 441.83 331.6 441.83 323.9C441.83 323 441.83 315.77 441.83 314.87C441.83 314.2 442.53 313.53 443.33 313.83C443.73 314.03 444.03 314.47 444.03 314.93C444.03 315.95 444.03 318.5 444.03 322.57Z" id="b4dwfiY5wU"></path><path d="M500 338.97C500 339.6 499.43 340.07 498.9 340.07C498.27 340.07 497.8 339.6 497.8 338.97C497.8 337.55 497.8 326.22 497.8 324.8C497.8 320.03 495.1 315.37 489.8 315.37C483.13 315.37 480.6 322.5 480.6 328.03C480.6 329.13 480.6 337.87 480.6 338.97C480.6 339.6 480.03 340.07 479.5 340.07C478.87 340.07 478.4 339.6 478.4 338.97C478.4 337.55 478.4 326.22 478.4 324.8C478.4 320.03 475.7 315.37 470.4 315.37C463.67 315.37 460.9 320.67 461.13 327.73C461.13 327.9 461.2 328.2 461.13 328.3C461.13 329.36 461.13 337.87 461.13 338.93C461.13 339.5 460.7 340.03 460.13 340.1C459.43 340.17 458.9 339.67 458.9 339C458.9 336.58 458.9 317.25 458.9 314.83C458.9 314.27 459.33 313.73 459.9 313.67C460.6 313.6 461.13 314.1 461.13 314.77C461.13 315.17 461.13 318.4 461.13 318.8C463.03 315.4 466.43 313.17 470.4 313.17C474.9 313.17 478.4 316.03 479.83 320.2C481.67 316.07 485.23 313.17 489.8 313.17C496.3 313.17 500 318.8 500 324.8C500 327.63 500 337.55 500 338.97Z" id="h5HkpeBVh"></path><path d="M140 320.83L167.47 337.2L194.97 320.83L167.47 308.27L140 320.83Z" id="a65y5nLeIK"></path><path d="M167.47 337.2L167.47 308.27L167.47 274.9L140 320.83L167.47 337.2Z" id="i3rjW4n1ex"></path><path d="M167.47 308.27L167.47 337.2L194.97 320.83L167.47 274.9L167.47 308.27Z" id="c2gHMH7pj"></path><path d="M167.47 365.1L167.47 342.43L140 326.1L167.47 365.1Z" id="cbXkdxlJM"></path><path d="M167.47 365.1L194.97 326.1L167.47 342.43L167.47 365.1Z" id="gifbomIcO"></path></defs><g><g><use xlink:href="#byH3OfKrW" opacity="1" fill="#ffffff" fill-opacity="1"></use><g><use xlink:href="#byH3OfKrW" opacity="1" fill-opacity="0" stroke="#ffffff" stroke-width="1" stroke-opacity="1"></use></g></g><g><use xlink:href="#e4BUf4fSej" opacity="1" fill="#ffffff" fill-opacity="1"></use><g><use xlink:href="#e4BUf4fSej" opacity="1" fill-opacity="0" stroke="#ffffff" stroke-width="1" stroke-opacity="1"></use></g></g><g><use xlink:href="#gM2arnU53" opacity="1" fill="#ffffff" fill-opacity="1"></use><g><use xlink:href="#gM2arnU53" opacity="1" fill-opacity="0" stroke="#ffffff" stroke-width="1" stroke-opacity="1"></use></g></g><g><use xlink:href="#b3fhkO216" opacity="1" fill="#ffffff" fill-opacity="1"></use><g><use xlink:href="#b3fhkO216" opacity="1" fill-opacity="0" stroke="#ffffff" stroke-width="1" stroke-opacity="1"></use></g></g><g><use xlink:href="#aoTB4EMX1" opacity="1" fill="#ffffff" fill-opacity="1"></use><g><use xlink:href="#aoTB4EMX1" opacity="1" fill-opacity="0" stroke="#ffffff" stroke-width="1" stroke-opacity="1"></use></g></g><g><use xlink:href="#b6oQ5qstrM" opacity="1" fill="#ffffff" fill-opacity="1"></use><g><use xlink:href="#b6oQ5qstrM" opacity="1" fill-opacity="0" stroke="#ffffff" stroke-width="1" stroke-opacity="1"></use></g></g><g><use xlink:href="#b4dwfiY5wU" opacity="1" fill="#ffffff" fill-opacity="1"></use><g><use xlink:href="#b4dwfiY5wU" opacity="1" fill-opacity="0" stroke="#ffffff" stroke-width="1" stroke-opacity="1"></use></g></g><g><use xlink:href="#h5HkpeBVh" opacity="1" fill="#ffffff" fill-opacity="1"></use><g><use xlink:href="#h5HkpeBVh" opacity="1" fill-opacity="0" stroke="#ffffff" stroke-width="1" stroke-opacity="1"></use></g></g><g><use xlink:href="#a65y5nLeIK" opacity="1" fill="#ffffff" fill-opacity="1"></use><g><use xlink:href="#a65y5nLeIK" opacity="1" fill-opacity="0" stroke="#ffffff" stroke-width="1" stroke-opacity="1"></use></g></g><g><use xlink:href="#i3rjW4n1ex" opacity="1" fill="#ffffff" fill-opacity="1"></use><g><use xlink:href="#i3rjW4n1ex" opacity="1" fill-opacity="0" stroke="#ffffff" stroke-width="1" stroke-opacity="1"></use></g></g><g><use xlink:href="#c2gHMH7pj" opacity="1" fill="#ffffff" fill-opacity="1"></use><g><use xlink:href="#c2gHMH7pj" opacity="1" fill-opacity="0" stroke="#ffffff" stroke-width="1" stroke-opacity="1"></use></g></g><g><use xlink:href="#cbXkdxlJM" opacity="1" fill="#ffffff" fill-opacity="1"></use><g><use xlink:href="#cbXkdxlJM" opacity="1" fill-opacity="0" stroke="#ffffff" stroke-width="1" stroke-opacity="1"></use></g></g><g><use xlink:href="#gifbomIcO" opacity="1" fill="#ffffff" fill-opacity="1"></use><g><use xlink:href="#gifbomIcO" opacity="1" fill-opacity="0" stroke="#ffffff" stroke-width="1" stroke-opacity="1"></use></g></g></g></svg>