<?xml version="1.0" encoding="UTF-8" standalone="no"?>
<!DOCTYPE svg PUBLIC "-//W3C//DTD SVG 1.1//EN" "http://www.w3.org/Graphics/SVG/1.1/DTD/svg11.dtd">
<svg version="1.1" xmlns="http://www.w3.org/2000/svg" xmlns:xlink="http://www.w3.org/1999/xlink" preserveAspectRatio="xMidYMid meet" viewBox="48.56757454498515 269.4324254550148 544.860261319794 103.13514908997035" width="1549" height="480"><defs><path d="M518.48 315.46C516.58 314.38 514.55 313.43 512.9 312.07C510.09 309.76 510.67 305.21 513.6 303.23C517.82 300.42 524.8 301.99 525.54 307.73C525.54 307.86 525.66 307.94 525.79 307.94C526.42 307.94 531.51 307.94 532.15 307.94C532.31 307.94 532.44 307.81 532.4 307.65C532.07 303.68 530.54 300.38 527.73 298.27C525.04 296.25 521.99 295.17 518.72 295.17C501.91 295.17 500.38 312.98 509.43 318.6C510.46 319.26 519.34 323.72 522.48 325.66C525.62 327.6 526.61 331.15 525.25 333.96C524.01 336.52 520.79 338.3 517.57 338.09C514.06 337.89 511.33 335.99 510.38 333.01C510.22 332.47 510.13 331.44 510.13 330.99C510.13 330.86 510.01 330.74 509.89 330.74C509.2 330.74 503.68 330.74 502.99 330.74C502.86 330.74 502.74 330.86 502.74 330.99C502.74 335.99 503.98 338.75 507.37 341.27C510.55 343.67 514.02 344.66 517.61 344.66C527.03 344.66 531.9 339.33 532.89 333.8C533.76 328.39 532.15 323.51 527.32 320.29C524.51 318.43 521.41 317.11 518.48 315.46Z" id="g11JL0q6bB"></path><path d="M224.75 296.08C222.74 296.08 221.62 296.08 221.4 296.08C221.28 296.08 221.2 296.17 221.15 296.25C220.59 298.12 216.06 313.05 215.5 314.92C215.41 315.17 215.08 315.17 215 314.92C214.43 313.05 209.91 298.12 209.34 296.25C209.3 296.12 209.22 296.08 209.09 296.08C208.87 296.08 207.75 296.08 205.75 296.08L202.69 296.08C200.21 296.08 198.83 296.08 198.56 296.08C198.44 296.08 198.31 296.21 198.31 296.33C198.31 301.1 198.31 339.23 198.31 344C198.31 344.12 198.44 344.25 198.56 344.25C199.25 344.25 204.77 344.25 205.46 344.25C205.58 344.25 205.71 344.12 205.71 344C205.71 340.38 205.71 311.4 205.71 307.77C205.71 307.48 206.12 307.44 206.2 307.69C206.58 308.94 208.48 315.21 211.9 326.49C212.15 327.28 212.29 327.72 212.31 327.81C212.36 327.93 212.44 327.97 212.56 327.97C213.09 327.97 217.32 327.97 217.85 327.97C217.97 327.97 218.06 327.89 218.1 327.81C218.12 327.72 218.26 327.28 218.51 326.49C221.93 315.21 223.83 308.94 224.21 307.69C224.29 307.4 224.71 307.48 224.71 307.77C224.71 311.4 224.71 340.38 224.71 344C224.71 344.12 224.83 344.25 224.95 344.25C225.64 344.25 231.16 344.25 231.85 344.25C231.98 344.25 232.1 344.12 232.1 344C232.1 339.23 232.1 301.1 232.1 296.33C232.1 296.21 231.98 296.08 231.85 296.08C231.58 296.08 230.23 296.08 227.8 296.08L224.75 296.08Z" id="aBgkzZ7V"></path><path d="M421.45 296.25C420.88 298.12 416.36 313.05 415.79 314.92C415.71 315.17 415.38 315.17 415.29 314.92C414.73 313.05 410.2 298.12 409.63 296.25C409.59 296.12 409.51 296.08 409.39 296.08C408.34 296.08 399.94 296.08 398.9 296.08C398.77 296.08 398.65 296.21 398.65 296.33C398.65 301.1 398.65 339.23 398.65 344C398.65 344.12 398.77 344.25 398.9 344.25C399.58 344.25 405.1 344.25 405.79 344.25C405.92 344.25 406.04 344.12 406.04 344C406.04 340.38 406.04 311.4 406.04 307.77C406.04 307.48 406.45 307.44 406.54 307.69C406.92 308.94 408.82 315.21 412.24 326.49C412.48 327.28 412.62 327.72 412.65 327.81C412.69 327.93 412.77 327.97 412.9 327.97C413.43 327.97 417.66 327.97 418.19 327.97C418.31 327.97 418.39 327.89 418.43 327.81C418.46 327.72 418.6 327.28 418.85 326.49C422.27 315.21 424.17 308.94 424.55 307.69C424.63 307.4 425.04 307.48 425.04 307.77C425.04 311.4 425.04 340.38 425.04 344C425.04 344.12 425.17 344.25 425.29 344.25C425.98 344.25 431.5 344.25 432.19 344.25C432.31 344.25 432.44 344.12 432.44 344C432.44 339.23 432.44 301.1 432.44 296.33C432.44 296.21 432.31 296.08 432.19 296.08C431.49 296.08 427.99 296.08 421.7 296.08C421.56 296.14 421.48 296.19 421.45 296.25Z" id="apnEr17Zc"></path><path d="M319.88 296.08L312.98 296.08C305.27 296.08 300.99 296.08 300.13 296.08C300.01 296.08 299.88 296.21 299.88 296.33C299.88 296.93 299.88 301.68 299.88 302.28C299.88 302.4 300.01 302.53 300.13 302.53C300.97 302.53 305.17 302.53 312.73 302.53C312.73 327.41 312.73 341.23 312.73 344C312.73 344.12 312.85 344.25 312.98 344.25C313.67 344.25 319.19 344.25 319.88 344.25C320 344.25 320.12 344.12 320.12 344C320.12 341.23 320.12 327.41 320.12 302.53C327.68 302.53 331.88 302.53 332.72 302.53C332.85 302.53 332.97 302.4 332.97 302.28C332.97 301.68 332.97 296.93 332.97 296.33C332.97 296.21 332.89 296.08 332.72 296.08C331.01 296.08 326.73 296.08 319.88 296.08Z" id="eI3hqCjwE"></path><path d="M366.74 295.92L366.75 295.92L366.76 295.92L366.77 295.92L366.78 295.92L366.79 295.92L366.8 295.93L366.81 295.93L366.82 295.93L366.83 295.93L366.84 295.94L366.84 295.94L366.85 295.94L366.86 295.95L366.87 295.95L366.88 295.96L366.88 295.96L366.89 295.97L366.9 295.97L366.9 295.98L366.91 295.99L366.92 295.99L366.92 296L366.93 296.01L366.93 296.02L366.94 296.02L366.94 296.03L366.95 296.04L366.95 296.05L366.96 296.06L366.96 296.07L366.97 296.08L379.94 343.92L379.94 343.93L379.94 343.95L379.94 343.96L379.94 343.98L379.94 343.99L379.94 344.01L379.94 344.02L379.94 344.03L379.93 344.05L379.93 344.06L379.93 344.08L379.92 344.09L379.91 344.1L379.91 344.11L379.9 344.13L379.89 344.14L379.88 344.15L379.88 344.16L379.87 344.17L379.86 344.18L379.85 344.19L379.83 344.2L379.82 344.21L379.81 344.21L379.8 344.22L379.79 344.23L379.77 344.23L379.76 344.24L379.75 344.24L379.73 344.24L379.72 344.25L379.7 344.25L379.69 344.25L373.41 344.25L373.4 344.25L373.39 344.25L373.39 344.24L373.38 344.24L373.37 344.24L373.36 344.24L373.35 344.24L373.34 344.23L373.33 344.23L373.33 344.23L373.32 344.22L373.31 344.22L373.3 344.21L373.29 344.21L373.28 344.2L373.27 344.2L373.27 344.19L373.26 344.19L373.25 344.18L373.24 344.17L373.23 344.17L373.23 344.16L373.22 344.15L373.21 344.15L373.2 344.14L373.2 344.13L373.19 344.13L373.19 344.12L373.18 344.11L373.17 344.1L373.17 344.1L373.17 344.09L373.16 344.08L369.4 330.16L369.4 330.15L369.39 330.15L369.39 330.14L369.39 330.13L369.38 330.12L369.38 330.12L369.37 330.11L369.37 330.1L369.36 330.1L369.35 330.09L369.35 330.08L369.34 330.08L369.33 330.07L369.33 330.06L369.32 330.06L369.31 330.05L369.31 330.04L369.3 330.04L369.29 330.03L369.28 330.03L369.27 330.02L369.26 330.02L369.26 330.02L369.25 330.01L369.24 330.01L369.23 330.01L369.22 330L369.21 330L369.2 330L369.19 330L369.18 330L369.17 330L369.15 330L355.28 330L355.26 330L355.25 330L355.24 330L355.23 330L355.22 330L355.21 330L355.2 330L355.19 330L355.18 330.01L355.17 330.01L355.17 330.01L355.16 330.01L355.15 330.02L355.14 330.02L355.13 330.03L355.12 330.03L355.12 330.03L355.11 330.04L355.1 330.05L355.1 330.05L355.09 330.06L355.08 330.06L355.08 330.07L355.07 330.08L355.07 330.09L355.06 330.09L355.05 330.1L355.05 330.11L355.04 330.12L355.04 330.13L355.04 330.14L355.03 330.15L355.03 330.16L351.27 344.08L351.27 344.09L351.26 344.1L351.26 344.1L351.25 344.11L351.25 344.12L351.24 344.13L351.24 344.13L351.23 344.14L351.23 344.15L351.22 344.15L351.21 344.16L351.21 344.17L351.2 344.17L351.19 344.18L351.19 344.19L351.18 344.19L351.17 344.2L351.16 344.2L351.16 344.21L351.15 344.21L351.14 344.22L351.13 344.22L351.12 344.23L351.11 344.23L351.1 344.23L351.09 344.24L351.08 344.24L351.07 344.24L351.06 344.24L351.05 344.24L351.04 344.25L351.03 344.25L351.02 344.25L344.74 344.25L344.73 344.25L344.71 344.25L344.7 344.24L344.68 344.24L344.67 344.24L344.66 344.23L344.64 344.23L344.63 344.22L344.62 344.21L344.61 344.21L344.6 344.2L344.58 344.19L344.57 344.18L344.56 344.17L344.55 344.16L344.55 344.15L344.54 344.14L344.53 344.13L344.52 344.11L344.52 344.1L344.51 344.09L344.5 344.08L344.5 344.06L344.5 344.05L344.49 344.03L344.49 344.02L344.49 344.01L344.49 343.99L344.49 343.98L344.49 343.96L344.49 343.95L344.49 343.93L344.49 343.92L357.46 296.08L357.47 296.08L357.47 296.07L357.48 296.06L357.48 296.05L357.49 296.05L357.49 296.04L357.5 296.03L357.5 296.02L357.51 296.02L357.51 296.01L357.52 296L357.53 296L357.53 295.99L357.54 295.98L357.55 295.98L357.55 295.97L357.56 295.97L357.57 295.96L357.58 295.96L357.59 295.95L357.59 295.95L357.6 295.94L357.61 295.94L357.62 295.94L357.63 295.93L357.64 295.93L357.65 295.93L357.66 295.92L357.67 295.92L357.68 295.92L357.69 295.92L357.7 295.92L357.71 295.92L366.72 295.92L366.73 295.92L366.74 295.92ZM362.1 304.4L362.04 304.43L362 304.48L361.97 304.55L356.93 323.18L356.92 323.23L356.92 323.28L356.93 323.32L356.95 323.37L356.97 323.41L357.01 323.44L357.04 323.47L357.08 323.49L357.13 323.51L357.18 323.51L367.25 323.51L367.3 323.51L367.35 323.49L367.39 323.47L367.42 323.44L367.46 323.41L367.48 323.37L367.5 323.32L367.51 323.28L367.51 323.23L367.5 323.18L362.46 304.55L362.43 304.48L362.39 304.43L362.34 304.4L362.28 304.37L362.22 304.37L362.15 304.37L362.1 304.4Z" id="g2w0MBD6R"></path><path d="M473.81 295.92L473.82 295.92L473.83 295.92L473.84 295.92L473.85 295.92L473.86 295.92L473.87 295.93L473.88 295.93L473.88 295.93L473.89 295.93L473.9 295.94L473.91 295.94L473.92 295.94L473.93 295.95L473.93 295.95L473.94 295.96L473.95 295.96L473.96 295.97L473.96 295.97L473.97 295.98L473.98 295.99L473.98 295.99L473.99 296L473.99 296.01L474 296.02L474 296.02L474.01 296.03L474.01 296.04L474.02 296.05L474.02 296.06L474.03 296.07L474.03 296.08L487 343.92L487 343.93L487.01 343.95L487.01 343.96L487.01 343.98L487.01 343.99L487.01 344.01L487.01 344.02L487 344.03L487 344.05L487 344.06L486.99 344.08L486.99 344.09L486.98 344.1L486.97 344.11L486.97 344.13L486.96 344.14L486.95 344.15L486.94 344.16L486.93 344.17L486.92 344.18L486.91 344.19L486.9 344.2L486.89 344.21L486.88 344.21L486.86 344.22L486.85 344.23L486.84 344.23L486.83 344.24L486.81 344.24L486.8 344.24L486.78 344.25L486.77 344.25L486.75 344.25L480.48 344.25L480.46 344.25L480.45 344.25L480.44 344.24L480.43 344.24L480.42 344.24L480.41 344.24L480.4 344.24L480.39 344.23L480.38 344.23L480.37 344.23L480.36 344.22L480.36 344.22L480.35 344.21L480.34 344.21L480.33 344.2L480.32 344.2L480.32 344.19L480.31 344.19L480.3 344.18L480.3 344.17L480.29 344.17L480.28 344.16L480.28 344.15L480.27 344.15L480.26 344.14L480.26 344.13L480.25 344.13L480.25 344.12L480.24 344.11L480.24 344.1L480.24 344.1L480.23 344.09L480.23 344.08L476.47 330.16L476.46 330.15L476.46 330.15L476.46 330.14L476.45 330.13L476.45 330.12L476.44 330.12L476.44 330.11L476.43 330.1L476.43 330.1L476.42 330.09L476.41 330.08L476.41 330.08L476.4 330.07L476.39 330.06L476.39 330.06L476.38 330.05L476.37 330.04L476.36 330.04L476.36 330.03L476.35 330.03L476.34 330.02L476.33 330.02L476.32 330.02L476.31 330.01L476.3 330.01L476.29 330.01L476.28 330L476.27 330L476.26 330L476.25 330L476.24 330L476.23 330L476.22 330L462.34 330L462.33 330L462.32 330L462.31 330L462.3 330L462.29 330L462.28 330L462.27 330L462.26 330L462.25 330.01L462.24 330.01L462.23 330.01L462.22 330.01L462.21 330.02L462.21 330.02L462.2 330.03L462.19 330.03L462.18 330.03L462.18 330.04L462.17 330.05L462.16 330.05L462.16 330.06L462.15 330.06L462.14 330.07L462.14 330.08L462.13 330.09L462.13 330.09L462.12 330.1L462.12 330.11L462.11 330.12L462.11 330.13L462.1 330.14L462.1 330.15L462.09 330.16L458.33 344.08L458.33 344.09L458.33 344.1L458.32 344.1L458.32 344.11L458.31 344.12L458.31 344.13L458.3 344.13L458.3 344.14L458.29 344.15L458.29 344.15L458.28 344.16L458.27 344.17L458.27 344.17L458.26 344.18L458.25 344.19L458.25 344.19L458.24 344.2L458.23 344.2L458.22 344.21L458.21 344.21L458.21 344.22L458.2 344.22L458.19 344.23L458.18 344.23L458.17 344.23L458.16 344.24L458.15 344.24L458.14 344.24L458.13 344.24L458.12 344.24L458.11 344.25L458.1 344.25L458.09 344.25L451.81 344.25L451.79 344.25L451.78 344.25L451.76 344.24L451.75 344.24L451.74 344.24L451.72 344.23L451.71 344.23L451.7 344.22L451.68 344.21L451.67 344.21L451.66 344.2L451.65 344.19L451.64 344.18L451.63 344.17L451.62 344.16L451.61 344.15L451.6 344.14L451.6 344.13L451.59 344.11L451.58 344.1L451.58 344.09L451.57 344.08L451.57 344.06L451.56 344.05L451.56 344.03L451.56 344.02L451.55 344.01L451.55 343.99L451.55 343.98L451.55 343.96L451.55 343.95L451.56 343.93L451.56 343.92L464.53 296.08L464.53 296.08L464.54 296.07L464.54 296.06L464.55 296.05L464.55 296.05L464.56 296.04L464.56 296.03L464.57 296.02L464.57 296.02L464.58 296.01L464.59 296L464.59 296L464.6 295.99L464.61 295.98L464.61 295.98L464.62 295.97L464.63 295.97L464.64 295.96L464.64 295.96L464.65 295.95L464.66 295.95L464.67 295.94L464.68 295.94L464.69 295.94L464.7 295.93L464.71 295.93L464.72 295.93L464.73 295.92L464.74 295.92L464.75 295.92L464.76 295.92L464.77 295.92L464.78 295.92L473.78 295.92L473.79 295.92L473.81 295.92ZM469.16 304.4L469.11 304.43L469.06 304.48L469.03 304.55L463.99 323.18L463.99 323.23L463.99 323.28L464 323.32L464.02 323.37L464.04 323.41L464.07 323.44L464.11 323.47L464.15 323.49L464.19 323.51L464.24 323.51L474.32 323.51L474.37 323.51L474.41 323.49L474.45 323.47L474.49 323.44L474.52 323.41L474.55 323.37L474.56 323.32L474.57 323.28L474.58 323.23L474.57 323.18L469.53 304.55L469.5 304.48L469.45 304.43L469.4 304.4L469.34 304.37L469.28 304.37L469.22 304.37L469.16 304.4Z" id="bEofFFE1"></path><path d="M260.11 322.4C260.11 322.27 260.23 322.15 260.35 322.15C262.19 322.15 276.9 322.15 278.73 322.15C278.86 322.15 278.98 322.02 278.98 321.9C278.98 321.31 278.98 316.55 278.98 315.95C278.98 315.83 278.86 315.7 278.73 315.7C276.9 315.7 262.19 315.7 260.35 315.7C260.23 315.7 260.11 315.58 260.11 315.46C260.11 314.19 260.11 304.08 260.11 302.82C260.11 302.69 260.23 302.57 260.35 302.57C262.44 302.57 279.16 302.57 281.25 302.57C281.38 302.57 281.5 302.44 281.5 302.32C281.5 301.73 281.5 296.97 281.5 296.37C281.5 296.25 281.38 296.12 281.25 296.12C279.84 296.12 272.8 296.12 260.11 296.12C255.82 296.12 253.44 296.12 252.96 296.12C252.84 296.12 252.71 296.25 252.71 296.37C252.71 296.79 252.71 298.85 252.71 302.57L252.71 315.75L252.71 322.19L252.71 337.47C252.71 341.39 252.71 343.56 252.71 344C252.71 344.12 252.84 344.25 252.96 344.25C253.44 344.25 255.82 344.25 260.11 344.25C273.32 344.25 280.65 344.25 282.12 344.25C282.25 344.25 282.37 344.12 282.37 344C282.37 343.37 282.37 338.35 282.37 337.72C282.37 337.6 282.25 337.47 282.12 337.47C279.94 337.47 262.49 337.47 260.31 337.47C260.19 337.43 260.11 337.35 260.11 337.18C260.11 334.23 260.11 323.87 260.11 322.4Z" id="f7Yj6biigw"></path><path d="M566.47 319.17C566.39 319.09 566.39 318.93 566.47 318.84C568.62 316.61 585.81 298.77 587.95 296.54C588.12 296.37 588 296.12 587.79 296.12C586.91 296.12 579.87 296.12 578.99 296.12C578.91 296.12 578.87 296.17 578.83 296.21C577 298.1 562.43 313.23 560.61 315.13C560.44 315.29 560.2 315.17 560.2 314.96C560.2 313.1 560.2 298.23 560.2 296.37C560.2 296.25 560.07 296.12 559.95 296.12C559.26 296.12 553.74 296.12 553.05 296.12C552.93 296.12 552.8 296.25 552.8 296.37C552.8 301.14 552.8 339.27 552.8 344.04C552.8 344.16 552.93 344.29 553.05 344.29C553.74 344.29 559.26 344.29 559.95 344.29C560.07 344.29 560.2 344.16 560.2 344.04C560.2 341.94 560.2 325.16 560.2 323.06C560.2 322.85 560.49 322.73 560.61 322.89C562.67 325.02 579.2 342.07 581.26 344.21C581.3 344.25 581.39 344.29 581.43 344.29C582.31 344.29 589.35 344.29 590.23 344.29C590.39 344.25 590.52 343.96 590.35 343.83C585.57 338.9 568.86 321.64 566.47 319.17Z" id="l2gyCeMr0f"></path><path d="M109.42 301.41L117.19 283.15L151.18 270.43L109.42 301.41Z" id="a2oY47onz6"></path><path d="M96.24 301.7L88.85 283.15L54.85 270.43L96.24 301.7Z" id="a5HWxDCnEY"></path><path d="M125.03 359.28L148.83 365.85L155.64 342.64L136.15 342.26L125.03 359.28Z" id="aaGFaVRehM"></path><path d="M57.21 365.85L80.96 359.28L69.89 342.26L50.44 342.64L57.21 365.85Z" id="a1Aeiz7xPp"></path><path d="M73.07 323.51L96.62 324.59L95.83 299.18L79.68 313.51L73.07 323.51Z" id="fvdSwD8D"></path><path d="M109.96 298.89L109.42 324.59L132.97 323.51L126.36 313.51L109.96 298.89Z" id="e1JM7Eq54A"></path><path d="M95.21 352.38L82.94 342.8L80.96 359.28L95.21 352.38Z" id="aoaEnP9Vu"></path><path d="M125.03 359.28L123.09 342.8L110.82 352.38L125.03 359.28Z" id="b3XHAGOBF"></path><path d="M110.82 352.38L111.98 361.64L111.86 365.56L125.03 359.28L110.82 352.38Z" id="dmfI1xRZ5"></path><path d="M94.18 365.56L94.1 361.64L95.21 352.38L80.96 359.28L94.18 365.56Z" id="f12lXZ2N3"></path><path d="M82.61 333.22L90.96 329.38L94.43 336.69L82.61 333.22Z" id="aKtTchA3i"></path><path d="M115.08 329.38L123.46 333.22L111.61 336.69L115.08 329.38Z" id="c1v7OUPhqs"></path><path d="M83.03 342.26L69.89 342.64L80.96 359.28L83.03 342.26Z" id="a1IsnRBHmv"></path><path d="M125.03 359.28L136.15 342.64L123.01 342.26L125.03 359.28Z" id="a1lu3rvVeO"></path><path d="M109.42 324.59L111.61 336.69L115.08 329.38L123.46 333.22L132.97 323.51L109.42 324.59Z" id="b2ieMwYXtV"></path><path d="M90.96 329.38L94.43 336.69L96.62 324.59L73.07 323.51L82.61 333.22L90.96 329.38Z" id="c2kmJYJ7jG"></path><path d="M82.94 342.8L82.61 333.22L73.07 323.51L82.94 342.8Z" id="ghhHyXfUM"></path><path d="M123.09 342.8L132.97 323.51L123.46 333.22L123.09 342.8Z" id="bal6gNXZc"></path><path d="M94.43 336.69L97.19 350.98L97.81 332.14L96.62 324.59L94.43 336.69Z" id="b5RU0SwUZ"></path><path d="M108.26 332.1L108.84 350.98L111.61 336.69L109.42 324.59L108.26 332.1Z" id="b1r54fCApS"></path><path d="M108.84 350.98L110.82 352.38L123.09 342.8L123.46 333.22L111.61 336.69L108.84 350.98Z" id="eztqgHfnv"></path><path d="M82.94 342.8L95.21 352.38L97.19 350.98L94.43 336.69L82.61 333.22L82.94 342.8Z" id="aqIi2Ph7p"></path><path d="M111.98 361.64L110.91 360.73L95.13 360.73L94.1 361.64L94.18 365.56L80.96 359.28L85.59 363.08L94.96 369.57L111.03 369.57L120.45 363.08L125.03 359.28L111.86 365.56L111.98 361.64Z" id="anThrqpkY"></path><path d="M108.84 350.98L97.19 350.98L95.21 352.38L94.1 361.64L95.13 360.73L110.91 360.73L111.98 361.64L110.82 352.38L108.84 350.98Z" id="a29OFzwLFa"></path><path d="M156.47 286.34L151.18 270.43L110.82 300.38L126.36 313.51L148.29 319.92L153.12 314.26L151.02 312.73L154.36 309.67L151.8 307.69L155.15 305.13L152.96 303.44L156.47 286.34Z" id="dfTg1Lp9H"></path><path d="M53.12 303.44L50.85 305.13L54.24 307.69L51.67 309.67L55.02 312.73L52.91 314.26L57.75 319.92L79.68 313.51L95.21 300.38L54.85 270.43L49.57 286.34L53.12 303.44Z" id="b496xfpa45"></path><path d="M126.36 313.51L132.97 323.51L123.09 342.8L136.15 342.64L155.64 342.64L148.29 319.92L126.36 313.51Z" id="b733F8DXH"></path><path d="M57.75 319.92L50.44 342.64L69.89 342.64L82.94 342.8L73.07 323.51L79.68 313.51L57.75 319.92Z" id="e1MCDclHfy"></path><path d="M110.82 300.38L117.19 283.15L88.85 283.15L95.21 300.38L96.62 324.59L97.15 332.19L97.19 350.98L108.84 350.98L108.88 332.19L109.42 324.59L110.82 300.38Z" id="a1wKzBiKCs"></path></defs><g><g><use xlink:href="#g11JL0q6bB" opacity="1" fill="#ffffff" fill-opacity="1"></use><g><use xlink:href="#g11JL0q6bB" opacity="1" fill-opacity="0" stroke="#000000" stroke-width="1" stroke-opacity="0"></use></g></g><g><use xlink:href="#aBgkzZ7V" opacity="1" fill="#ffffff" fill-opacity="1"></use><g><use xlink:href="#aBgkzZ7V" opacity="1" fill-opacity="0" stroke="#000000" stroke-width="1" stroke-opacity="0"></use></g></g><g><use xlink:href="#apnEr17Zc" opacity="1" fill="#ffffff" fill-opacity="1"></use><g><use xlink:href="#apnEr17Zc" opacity="1" fill-opacity="0" stroke="#000000" stroke-width="1" stroke-opacity="0"></use></g></g><g><use xlink:href="#eI3hqCjwE" opacity="1" fill="#ffffff" fill-opacity="1"></use><g><use xlink:href="#eI3hqCjwE" opacity="1" fill-opacity="0" stroke="#000000" stroke-width="1" stroke-opacity="0"></use></g></g><g><use xlink:href="#g2w0MBD6R" opacity="1" fill="#ffffff" fill-opacity="1"></use><g><use xlink:href="#g2w0MBD6R" opacity="1" fill-opacity="0" stroke="#000000" stroke-width="1" stroke-opacity="0"></use></g></g><g><use xlink:href="#bEofFFE1" opacity="1" fill="#ffffff" fill-opacity="1"></use><g><use xlink:href="#bEofFFE1" opacity="1" fill-opacity="0" stroke="#000000" stroke-width="1" stroke-opacity="0"></use></g></g><g><use xlink:href="#f7Yj6biigw" opacity="1" fill="#ffffff" fill-opacity="1"></use><g><use xlink:href="#f7Yj6biigw" opacity="1" fill-opacity="0" stroke="#000000" stroke-width="1" stroke-opacity="0"></use></g></g><g><use xlink:href="#l2gyCeMr0f" opacity="1" fill="#ffffff" fill-opacity="1"></use><g><use xlink:href="#l2gyCeMr0f" opacity="1" fill-opacity="0" stroke="#000000" stroke-width="1" stroke-opacity="0"></use></g></g><g><use xlink:href="#a2oY47onz6" opacity="1" fill="#e17726" fill-opacity="1"></use><g><use xlink:href="#a2oY47onz6" opacity="1" fill-opacity="0" stroke="#e17726" stroke-width="1" stroke-opacity="1"></use></g></g><g><use xlink:href="#a5HWxDCnEY" opacity="1" fill="#e27625" fill-opacity="1"></use><g><use xlink:href="#a5HWxDCnEY" opacity="1" fill-opacity="0" stroke="#e27625" stroke-width="1" stroke-opacity="1"></use></g></g><g><use xlink:href="#aaGFaVRehM" opacity="1" fill="#e27625" fill-opacity="1"></use><g><use xlink:href="#aaGFaVRehM" opacity="1" fill-opacity="0" stroke="#e27625" stroke-width="1" stroke-opacity="1"></use></g></g><g><use xlink:href="#a1Aeiz7xPp" opacity="1" fill="#e27625" fill-opacity="1"></use><g><use xlink:href="#a1Aeiz7xPp" opacity="1" fill-opacity="0" stroke="#e27625" stroke-width="1" stroke-opacity="1"></use></g></g><g><use xlink:href="#fvdSwD8D" opacity="1" fill="#e27625" fill-opacity="1"></use><g><use xlink:href="#fvdSwD8D" opacity="1" fill-opacity="0" stroke="#e27625" stroke-width="1" stroke-opacity="1"></use></g></g><g><use xlink:href="#e1JM7Eq54A" opacity="1" fill="#e27625" fill-opacity="1"></use><g><use xlink:href="#e1JM7Eq54A" opacity="1" fill-opacity="0" stroke="#e27625" stroke-width="1" stroke-opacity="1"></use></g></g><g><use xlink:href="#aoaEnP9Vu" opacity="1" fill="#e27625" fill-opacity="1"></use><g><use xlink:href="#aoaEnP9Vu" opacity="1" fill-opacity="0" stroke="#e27625" stroke-width="1" stroke-opacity="1"></use></g></g><g><use xlink:href="#b3XHAGOBF" opacity="1" fill="#e27625" fill-opacity="1"></use><g><use xlink:href="#b3XHAGOBF" opacity="1" fill-opacity="0" stroke="#e27625" stroke-width="1" stroke-opacity="1"></use></g></g><g><use xlink:href="#dmfI1xRZ5" opacity="1" fill="#d5bfb2" fill-opacity="1"></use><g><use xlink:href="#dmfI1xRZ5" opacity="1" fill-opacity="0" stroke="#d5bfb2" stroke-width="1" stroke-opacity="1"></use></g></g><g><use xlink:href="#f12lXZ2N3" opacity="1" fill="#d5bfb2" fill-opacity="1"></use><g><use xlink:href="#f12lXZ2N3" opacity="1" fill-opacity="0" stroke="#d5bfb2" stroke-width="1" stroke-opacity="1"></use></g></g><g><use xlink:href="#aKtTchA3i" opacity="1" fill="#233447" fill-opacity="1"></use><g><use xlink:href="#aKtTchA3i" opacity="1" fill-opacity="0" stroke="#233447" stroke-width="1" stroke-opacity="1"></use></g></g><g><use xlink:href="#c1v7OUPhqs" opacity="1" fill="#233447" fill-opacity="1"></use><g><use xlink:href="#c1v7OUPhqs" opacity="1" fill-opacity="0" stroke="#233447" stroke-width="1" stroke-opacity="1"></use></g></g><g><use xlink:href="#a1IsnRBHmv" opacity="1" fill="#cc6228" fill-opacity="1"></use><g><use xlink:href="#a1IsnRBHmv" opacity="1" fill-opacity="0" stroke="#cc6228" stroke-width="1" stroke-opacity="1"></use></g></g><g><use xlink:href="#a1lu3rvVeO" opacity="1" fill="#cc6228" fill-opacity="1"></use><g><use xlink:href="#a1lu3rvVeO" opacity="1" fill-opacity="0" stroke="#cc6228" stroke-width="1" stroke-opacity="1"></use></g></g><g><use xlink:href="#b2ieMwYXtV" opacity="1" fill="#cc6228" fill-opacity="1"></use><g><use xlink:href="#b2ieMwYXtV" opacity="1" fill-opacity="0" stroke="#cc6228" stroke-width="1" stroke-opacity="1"></use></g></g><g><use xlink:href="#c2kmJYJ7jG" opacity="1" fill="#cc6228" fill-opacity="1"></use><g><use xlink:href="#c2kmJYJ7jG" opacity="1" fill-opacity="0" stroke="#cc6228" stroke-width="1" stroke-opacity="1"></use></g></g><g><use xlink:href="#ghhHyXfUM" opacity="1" fill="#e27525" fill-opacity="1"></use><g><use xlink:href="#ghhHyXfUM" opacity="1" fill-opacity="0" stroke="#e27525" stroke-width="1" stroke-opacity="1"></use></g></g><g><use xlink:href="#bal6gNXZc" opacity="1" fill="#e27525" fill-opacity="1"></use><g><use xlink:href="#bal6gNXZc" opacity="1" fill-opacity="0" stroke="#e27525" stroke-width="1" stroke-opacity="1"></use></g></g><g><use xlink:href="#b5RU0SwUZ" opacity="1" fill="#e27525" fill-opacity="1"></use><g><use xlink:href="#b5RU0SwUZ" opacity="1" fill-opacity="0" stroke="#e27525" stroke-width="1" stroke-opacity="1"></use></g></g><g><use xlink:href="#b1r54fCApS" opacity="1" fill="#e27525" fill-opacity="1"></use><g><use xlink:href="#b1r54fCApS" opacity="1" fill-opacity="0" stroke="#e27525" stroke-width="1" stroke-opacity="1"></use></g></g><g><use xlink:href="#eztqgHfnv" opacity="1" fill="#f5841f" fill-opacity="1"></use><g><use xlink:href="#eztqgHfnv" opacity="1" fill-opacity="0" stroke="#f5841f" stroke-width="1" stroke-opacity="1"></use></g></g><g><use xlink:href="#aqIi2Ph7p" opacity="1" fill="#f5841f" fill-opacity="1"></use><g><use xlink:href="#aqIi2Ph7p" opacity="1" fill-opacity="0" stroke="#f5841f" stroke-width="1" stroke-opacity="1"></use></g></g><g><use xlink:href="#anThrqpkY" opacity="1" fill="#c0ac9d" fill-opacity="1"></use><g><use xlink:href="#anThrqpkY" opacity="1" fill-opacity="0" stroke="#c0ac9d" stroke-width="1" stroke-opacity="1"></use></g></g><g><use xlink:href="#a29OFzwLFa" opacity="1" fill="#161616" fill-opacity="1"></use><g><use xlink:href="#a29OFzwLFa" opacity="1" fill-opacity="0" stroke="#161616" stroke-width="1" stroke-opacity="1"></use></g></g><g><use xlink:href="#dfTg1Lp9H" opacity="1" fill="#763e1a" fill-opacity="1"></use><g><use xlink:href="#dfTg1Lp9H" opacity="1" fill-opacity="0" stroke="#763e1a" stroke-width="1" stroke-opacity="1"></use></g></g><g><use xlink:href="#b496xfpa45" opacity="1" fill="#763e1a" fill-opacity="1"></use><g><use xlink:href="#b496xfpa45" opacity="1" fill-opacity="0" stroke="#763e1a" stroke-width="1" stroke-opacity="1"></use></g></g><g><use xlink:href="#b733F8DXH" opacity="1" fill="#f5841f" fill-opacity="1"></use><g><use xlink:href="#b733F8DXH" opacity="1" fill-opacity="0" stroke="#f5841f" stroke-width="1" stroke-opacity="1"></use></g></g><g><use xlink:href="#e1MCDclHfy" opacity="1" fill="#f5841f" fill-opacity="1"></use><g><use xlink:href="#e1MCDclHfy" opacity="1" fill-opacity="0" stroke="#f5841f" stroke-width="1" stroke-opacity="1"></use></g></g><g><use xlink:href="#a1wKzBiKCs" opacity="1" fill="#f5841f" fill-opacity="1"></use><g><use xlink:href="#a1wKzBiKCs" opacity="1" fill-opacity="0" stroke="#f5841f" stroke-width="1" stroke-opacity="1"></use></g></g></g></svg>